<svg width="280" height="400" viewBox="0 0 280 400" fill="none" xmlns="http://www.w3.org/2000/svg">
<g clip-path="url(#clip0_3425_15522)">
<rect width="280" height="400" rx="20" fill="#FEE388"/>
<path opacity="0.8" d="M74.9622 231.05C71.2675 230.28 67.8447 228.449 65.1356 225.74C61.4719 222.076 59.4136 217.107 59.4136 211.926C59.4136 207.365 61.0086 202.968 63.8897 199.482C62.5716 195.196 62.475 190.62 63.6208 186.272C64.8418 181.639 67.4176 177.476 71.0178 174.315L74.9776 170.755C75.747 132.199 105.245 104.073 141.158 104.073C176.535 104.073 205.422 131.3 207.068 168.906L213.076 174.315C216.676 177.471 219.255 181.631 220.479 186.261C221.631 190.617 221.536 195.203 220.214 199.497C223.088 202.981 224.678 207.371 224.678 211.926C224.678 217.107 222.62 222.076 218.956 225.74L214.318 221.101L218.956 225.74C217.879 226.817 216.689 227.755 215.414 228.543L224.113 287.579C225.644 297.974 212.751 303.356 206.305 296.037C205.972 295.801 205.513 295.503 204.969 295.174C204.425 294.845 203.868 294.53 203.38 294.267C202.86 293.988 202.547 293.839 202.464 293.802C202.068 293.627 201.64 293.537 201.207 293.537C200.774 293.537 200.346 293.627 199.949 293.802C199.558 293.975 199.206 294.227 198.916 294.542C196.832 296.846 194.29 298.687 191.452 299.949L187.551 291.178L191.452 299.949C188.604 301.216 185.522 301.87 182.405 301.87C179.288 301.87 176.206 301.216 173.358 299.949L177.258 291.178L173.358 299.949C170.518 298.687 167.974 296.843 165.889 294.538C165.6 294.221 165.248 293.968 164.856 293.794C164.461 293.62 164.034 293.529 163.603 293.529C163.171 293.529 162.744 293.62 162.35 293.794L158.464 285.016L162.35 293.794C161.955 293.969 161.602 294.224 161.312 294.542C161.312 294.543 161.311 294.543 161.311 294.544L74.9622 231.05ZM74.9622 231.05V250.357V250.361V231.05ZM221.038 283.719C220.808 283.407 220.543 283.084 220.238 282.761C220.238 282.761 220.238 282.761 220.238 282.761L220.234 282.765L206.344 285.021C207.883 285.701 211.713 287.866 213.107 289.201C213.162 289.253 213.212 289.304 213.259 289.353C213.279 289.374 213.296 289.396 213.313 289.419C213.32 289.429 213.327 289.44 213.334 289.451C213.735 290.091 214.725 289.726 214.615 288.979L214.571 288.676L221.471 284.357C221.443 284.313 221.413 284.266 221.381 284.217M221.038 283.719C220.784 283.375 220.515 283.057 220.234 282.765L214.498 288.183L214.552 288.547L221.163 283.894M221.038 283.719C221.155 283.879 221.27 284.045 221.381 284.217M221.038 283.719C221.081 283.778 221.123 283.836 221.163 283.894M221.163 283.894C221.165 283.896 221.166 283.899 221.168 283.901L214.552 288.548L214.571 288.676L221.468 284.353C221.439 284.307 221.411 284.262 221.381 284.217M221.163 283.894C221.245 284.01 221.317 284.118 221.381 284.217M127.25 293.794C127.644 293.969 127.998 294.223 128.289 294.542L123.69 294.545C123.981 294.225 124.336 293.97 124.732 293.794L120.849 285.015L124.732 293.794C125.129 293.619 125.557 293.529 125.991 293.529C126.425 293.529 126.853 293.619 127.25 293.794L131.133 285.015L127.25 293.794ZM205.209 294.564C205.205 294.558 205.201 294.551 205.197 294.545L205.199 294.549C205.202 294.554 205.206 294.559 205.209 294.564ZM87.1146 274.463V285.447C87.1146 288.856 88.4121 292.135 90.74 294.619C92.816 296.886 95.3384 298.699 98.149 299.944C100.993 301.204 104.07 301.855 107.181 301.855C110.292 301.855 113.369 301.204 116.214 299.944L112.325 291.167L116.214 299.944C119.054 298.685 121.6 296.847 123.689 294.547L87.1146 274.463Z" stroke="white" stroke-width="19.2"/>
<path d="M109.608 84.7964H56.1676C51.518 84.7964 47.7488 88.5656 47.7488 93.2152V123.462C47.7488 128.112 51.518 131.881 56.1676 131.881H109.608C114.258 131.881 118.027 128.112 118.027 123.462V93.2152C118.027 88.5656 114.258 84.7964 109.608 84.7964Z" fill="#7360DD"/>
<path d="M81.3345 142.396V127.636H66.5598L81.3345 142.396Z" fill="#7360DD"/>
<path d="M66.9059 113.119C69.5449 113.119 71.6842 110.98 71.6842 108.341C71.6842 105.702 69.5449 103.562 66.9059 103.562C64.267 103.562 62.1277 105.702 62.1277 108.341C62.1277 110.98 64.267 113.119 66.9059 113.119Z" fill="#EEEAFD"/>
<path d="M82.8786 113.119C85.5176 113.119 87.6569 110.98 87.6569 108.341C87.6569 105.702 85.5176 103.562 82.8786 103.562C80.2396 103.562 78.1003 105.702 78.1003 108.341C78.1003 110.98 80.2396 113.119 82.8786 113.119Z" fill="#EEEAFD"/>
<path d="M98.8537 113.119C101.493 113.119 103.632 110.98 103.632 108.341C103.632 105.702 101.493 103.562 98.8537 103.562C96.2147 103.562 94.0754 105.702 94.0754 108.341C94.0754 110.98 96.2147 113.119 98.8537 113.119Z" fill="#EEEAFD"/>
<path d="M243.366 179.442L252.923 176.214C254.291 175.752 255.787 175.853 257.082 176.493C258.376 177.134 259.363 178.263 259.825 179.631L263.567 190.712C264.027 192.087 263.923 193.588 263.278 194.886C262.633 196.184 261.499 197.174 260.126 197.638L250.626 200.846C249.25 201.31 247.746 201.209 246.444 200.565C245.143 199.921 244.15 198.786 243.686 197.41L239.949 186.343C239.487 184.975 239.587 183.479 240.228 182.185C240.869 180.891 241.997 179.904 243.366 179.442Z" fill="#FCD477"/>
<path d="M243.002 190.439L259.86 184.746C260.87 184.405 261.974 184.479 262.929 184.952C263.885 185.425 264.613 186.258 264.954 187.268L268.963 199.139C269.478 200.664 269.366 202.331 268.652 203.773C267.938 205.215 266.681 206.314 265.156 206.829L252.221 211.197C250.697 211.712 249.03 211.6 247.588 210.886C246.146 210.172 245.046 208.915 244.531 207.39L240.522 195.519C240.181 194.509 240.255 193.405 240.729 192.449C241.202 191.494 242.035 190.765 243.045 190.424L243.002 190.439Z" fill="#CFBBEC"/>
<path d="M240.994 187.124C257.808 187.124 271.439 173.493 271.439 156.68C271.439 139.866 257.808 126.235 240.994 126.235C224.18 126.235 210.55 139.866 210.55 156.68C210.55 173.493 224.18 187.124 240.994 187.124Z" fill="#FCD477"/>
<path opacity="0.4" d="M261.895 194.194L247.077 199.198C245.665 199.675 244.906 201.207 245.383 202.62L245.388 202.635C245.865 204.047 247.397 204.806 248.81 204.329L263.627 199.325C265.04 198.848 265.799 197.316 265.322 195.903L265.317 195.889C264.84 194.476 263.308 193.717 261.895 194.194Z" fill="white"/>
<path d="M226.389 157.756C231.273 157.756 235.232 153.797 235.232 148.913C235.232 144.029 231.273 140.069 226.389 140.069C221.504 140.069 217.545 144.029 217.545 148.913C217.545 153.797 221.504 157.756 226.389 157.756Z" fill="#FFF9EE"/>
<path d="M215.155 292.835L210.604 288.087C209.413 286.779 207.962 285.735 206.344 285.02C204.725 284.305 202.976 283.936 201.207 283.936C199.438 283.936 197.688 284.305 196.07 285.02C194.452 285.735 193.001 286.779 191.81 288.087C190.622 289.404 189.171 290.456 187.551 291.177C185.931 291.897 184.178 292.269 182.405 292.269C180.632 292.269 178.878 291.897 177.258 291.177C175.638 290.456 174.188 289.404 173 288.087C171.81 286.777 170.359 285.731 168.741 285.015C167.123 284.298 165.372 283.928 163.603 283.928C161.833 283.928 160.083 284.298 158.464 285.015C156.846 285.731 155.395 286.777 154.205 288.087C153.017 289.402 151.565 290.452 149.945 291.171C148.326 291.89 146.573 292.262 144.801 292.262C143.028 292.262 141.276 291.89 139.656 291.171C138.036 290.452 136.585 289.402 135.396 288.087C134.204 286.777 132.752 285.73 131.133 285.014C129.513 284.298 127.762 283.928 125.991 283.928C124.22 283.928 122.469 284.298 120.849 285.014C119.23 285.73 117.778 286.777 116.586 288.087C115.396 289.4 113.944 290.448 112.325 291.166C110.705 291.884 108.953 292.254 107.181 292.254C105.41 292.254 103.658 291.884 102.038 291.166C100.418 290.448 98.9666 289.4 97.7764 288.087L96.7146 286.98V163.641H196.148L215.155 292.835Z" fill="#FA6B50"/>
<path d="M202.262 221.225C202.262 221.225 210.408 198.38 210.863 197.212C211.823 194.478 211.941 191.518 211.2 188.716C210.459 185.914 208.893 183.399 206.706 181.497L193.919 169.984L178.75 179.48L193.312 191.827L181.647 209.742L202.262 221.225Z" fill="#D2ADE6"/>
<path d="M199.772 211.926C199.772 217.417 199.666 221.862 205.142 221.862C207.777 221.862 210.305 220.815 212.168 218.952C214.031 217.088 215.078 214.561 215.078 211.926C215.078 209.291 214.031 206.764 212.168 204.9C210.305 203.037 207.777 201.99 205.142 201.99C199.666 201.99 199.772 206.435 199.772 211.926Z" fill="#D2ADE6"/>
<path d="M81.8486 221.225C81.8486 221.225 73.6876 198.38 73.2477 197.212C72.2854 194.479 72.1657 191.52 72.904 188.719C73.6423 185.917 75.2047 183.401 77.3889 181.497L90.1916 169.984L105.361 179.48L90.7984 191.827L102.479 209.742L81.8486 221.225Z" fill="#D2ADE6"/>
<path d="M197.543 172.301C197.543 173.242 197.543 250.361 197.543 250.361C197.547 255.019 195.952 259.538 193.024 263.162C190.097 266.786 186.014 269.295 181.459 270.27C176.903 271.245 172.151 270.627 167.997 268.519C163.842 266.411 160.537 262.941 158.634 258.689C157.055 262.014 154.565 264.824 151.453 266.792C148.341 268.759 144.735 269.803 141.053 269.803C137.371 269.803 133.765 268.759 130.653 266.792C127.541 264.824 125.051 262.014 123.472 258.689C121.569 262.941 118.264 266.411 114.11 268.519C109.955 270.627 105.203 271.245 100.648 270.27C96.0924 269.295 92.0096 266.786 89.082 263.162C86.1544 259.538 84.5594 255.019 84.5635 250.361C84.5635 250.361 84.5635 173.242 84.5635 172.301C84.5635 138.156 110.169 113.673 141.159 113.673C172.15 113.673 197.543 138.11 197.543 172.301Z" fill="#E1BFF7"/>
<path d="M148.409 174.028C147.834 175.57 146.846 176.924 145.553 177.941C144.259 178.959 142.711 179.6 141.077 179.796C139.443 179.992 137.786 179.734 136.289 179.051C134.792 178.368 133.511 177.286 132.588 175.924" stroke="#491249" stroke-width="3.03381" stroke-linecap="round" stroke-linejoin="round"/>
<path d="M122.137 172.378C128.696 172.378 134.014 167.061 134.014 160.501C134.014 153.941 128.696 148.624 122.137 148.624C115.577 148.624 110.259 153.941 110.259 160.501C110.259 167.061 115.577 172.378 122.137 172.378Z" fill="white"/>
<path d="M122.136 168.012C126.283 168.012 129.644 164.65 129.644 160.503C129.644 156.356 126.283 152.995 122.136 152.995C117.989 152.995 114.627 156.356 114.627 160.503C114.627 164.65 117.989 168.012 122.136 168.012Z" fill="#491249"/>
<path d="M159.741 172.378C166.301 172.378 171.619 167.061 171.619 160.501C171.619 153.941 166.301 148.624 159.741 148.624C153.181 148.624 147.864 153.941 147.864 160.501C147.864 167.061 153.181 172.378 159.741 172.378Z" fill="white"/>
<path d="M159.74 168.012C163.887 168.012 167.249 164.65 167.249 160.503C167.249 156.356 163.887 152.995 159.74 152.995C155.593 152.995 152.231 156.356 152.231 160.503C152.231 164.65 155.593 168.012 159.74 168.012Z" fill="#491249"/>
<path d="M140.307 169.979C141.396 169.979 142.279 169.096 142.279 168.007C142.279 166.918 141.396 166.035 140.307 166.035C139.218 166.035 138.335 166.918 138.335 168.007C138.335 169.096 139.218 169.979 140.307 169.979Z" fill="#491249"/>
<path d="M197.482 228.279C197.483 232.207 196.348 236.051 194.212 239.347C192.077 242.643 189.033 245.25 185.448 246.854C181.863 248.458 177.89 248.99 174.01 248.386C170.129 247.781 166.506 246.067 163.579 243.448C162.188 242.194 160.389 241.484 158.516 241.451C156.643 241.417 154.821 242.062 153.385 243.266C149.899 246.149 145.516 247.727 140.992 247.727C136.468 247.727 132.085 246.149 128.599 243.266C127.163 242.061 125.339 241.417 123.465 241.453C121.591 241.489 119.793 242.204 118.405 243.463C115.478 246.082 111.855 247.797 107.975 248.401C104.094 249.005 100.121 248.474 96.5364 246.87C92.9514 245.266 89.9075 242.658 87.772 239.362C85.6366 236.066 84.5011 232.222 84.5024 228.294V236.789V250.335C84.4983 254.994 86.0934 259.512 89.021 263.136C91.9486 266.76 96.0313 269.269 100.587 270.244C105.142 271.219 109.894 270.601 114.049 268.493C118.203 266.385 121.508 262.915 123.411 258.663C124.99 261.989 127.48 264.798 130.592 266.766C133.704 268.733 137.31 269.777 140.992 269.777C144.674 269.777 148.28 268.733 151.392 266.766C154.504 264.798 156.994 261.989 158.573 258.663C160.476 262.915 163.781 266.385 167.936 268.493C172.09 270.601 176.842 271.219 181.397 270.244C185.953 269.269 190.036 266.76 192.963 263.136C195.891 259.512 197.486 254.994 197.482 250.335V228.279Z" fill="url(#paint0_linear_3425_15522)"/>
<path d="M84.3344 211.926C84.3344 217.417 84.4406 221.862 78.9494 221.862C76.3143 221.862 73.7871 220.815 71.9238 218.952C70.0605 217.088 69.0137 214.561 69.0137 211.926C69.0137 209.291 70.0605 206.764 71.9238 204.9C73.7871 203.037 76.3143 201.99 78.9494 201.99C84.4406 201.99 84.3344 206.435 84.3344 211.926Z" fill="#D2ADE6"/>
<path fill-rule="evenodd" clip-rule="evenodd" d="M167.782 142.604C167.973 143.753 167.197 144.839 166.049 145.031L152.579 147.276C151.43 147.467 150.344 146.691 150.152 145.543C149.961 144.394 150.737 143.308 151.885 143.116L165.355 140.871C166.504 140.68 167.59 141.456 167.782 142.604Z" fill="#031B0D"/>
<path fill-rule="evenodd" clip-rule="evenodd" d="M114.089 143.15C114.241 141.995 115.3 141.183 116.454 141.335L129.925 143.109C131.079 143.262 131.892 144.321 131.74 145.475C131.588 146.63 130.528 147.442 129.374 147.29L115.904 145.516C114.749 145.363 113.937 144.304 114.089 143.15Z" fill="#031B0D"/>
<path d="M39.9594 283.13C54.0841 283.13 65.5344 271.68 65.5344 257.555C65.5344 243.431 54.0841 231.98 39.9594 231.98C25.8346 231.98 14.3843 243.431 14.3843 257.555C14.3843 271.68 25.8346 283.13 39.9594 283.13Z" fill="#E1BFF7"/>
<path d="M43.7695 228.51C29.2375 226.629 17.1022 238.112 14.4173 252.219C13.5881 257.67 14.3958 263.245 16.7382 268.237C21.4406 268.707 28.4032 266.265 33.4242 264.096C41.5548 260.471 48.4567 249.549 43.7695 228.51Z" fill="#E1BFF7"/>
<path d="M45.2406 214.446C47.7435 219.892 47.4401 242.949 47.4401 242.949C47.3491 243.632 47.2581 244.329 47.1367 245.012C46.9344 245.904 46.6863 246.785 46.3935 247.651C43.6934 253.719 37.8684 251.201 31.7553 248.501C25.6422 245.801 23.7764 237.063 25.6877 233.332L25.9 233.059C25.9854 232.914 26.0565 232.762 26.1124 232.604C26.4514 231.706 26.6955 230.776 26.8405 229.828C27.0377 228.751 27.2046 227.598 27.3108 226.415L27.4776 224.64C27.4776 224.064 27.4776 223.381 27.599 222.941L26.886 218.39C26.5111 216.278 26.8866 214.101 27.9477 212.237C29.0087 210.373 30.6884 208.938 32.6958 208.182C39.5219 205.891 43.2838 210.199 45.2406 214.446Z" fill="#E1BFF7"/>
<path d="M67.64 277.74C72.2276 276.758 75.1507 272.243 74.1689 267.656C73.187 263.068 68.6721 260.145 64.0845 261.127L42.7841 265.685C38.1965 266.667 35.2734 271.182 36.2552 275.77C37.2371 280.357 41.752 283.28 46.3396 282.299L67.64 277.74Z" fill="#E1BFF7"/>
<path d="M63.7565 245.208C68.3441 244.226 71.2671 239.711 70.2853 235.123C69.3035 230.536 64.7886 227.613 60.201 228.595L44.0921 232.042C39.5045 233.024 36.5815 237.539 37.5633 242.126C38.5451 246.714 43.06 249.637 47.6476 248.655L63.7565 245.208Z" fill="#E1BFF7"/>
<path d="M69.5409 261.022C74.1285 260.04 77.0516 255.525 76.0697 250.937C75.0879 246.35 70.573 243.427 65.9854 244.409L45.3079 248.834C40.7203 249.816 37.7973 254.331 38.7791 258.918C39.7609 263.506 44.2758 266.429 48.8634 265.447L69.5409 261.022Z" fill="#E1BFF7"/>
<path d="M50.0493 247.816L63.6712 244.767" stroke="#D2ADE6" stroke-width="4.4597" stroke-linecap="round" stroke-linejoin="round"/>
<path d="M51.8081 264.414L65.4299 261.35" stroke="#D2ADE6" stroke-width="4.4597" stroke-linecap="round" stroke-linejoin="round"/>
</g>
<defs>
<linearGradient id="paint0_linear_3425_15522" x1="140.931" y1="231.146" x2="140.931" y2="295.66" gradientUnits="userSpaceOnUse">
<stop offset="0.02" stop-color="#E1BFF7"/>
<stop offset="0.66" stop-color="#C096E2"/>
</linearGradient>
<clipPath id="clip0_3425_15522">
<rect width="280" height="400" rx="20" fill="white"/>
</clipPath>
</defs>
</svg>
